# xmcd
#
# Track frame offsets: 
#        150
#        19210
#        39791
#        54366
#        77045
#        94294
#        114069
#        130610
#        144874
#        165903
#        189685
#        210057
#
# Disc length: 3007 seconds
#
# Revision: 1
# Processed by: cddbd v1.5.2PL0 Copyright (c) Steve Scherf et al.
# Submitted via: ExactAudioCopy v1.0b4
#
DISCID=830bbd0c
DTITLE=Tommy Castro and The Painkillers - Method To My Madness
DYEAR=2015
DGENRE=Blues
TTITLE0=Common Ground
TTITLE1=Shine A Light
TTITLE2=Method To My Madness
TTITLE3=Died And Gone To Heaven
TTITLE4=Got A Lot
TTITLE5=No Such Luck
TTITLE6=Two Hearts
TTITLE7=I'm Qualified
TTITLE8=Ride
TTITLE9=Lose Lose
TTITLE10=All About The Cash
TTITLE11=Bad Luck
EXTD=
EXTT0=
EXTT1=
EXTT2=
EXTT3=
EXTT4=
EXTT5=
EXTT6=
EXTT7=
EXTT8=
EXTT9=
EXTT10=
EXTT11=
PLAYORDER=
